<!DOCTYPE svg PUBLIC "-//W3C//DTD SVG 1.1//EN" "http://www.w3.org/Graphics/SVG/1.1/DTD/svg11.dtd">
<!-- Uploaded to: SVG Repo, www.svgrepo.com, Transformed by: SVG Repo Mixer Tools -->
<svg fill="#4c6acd" width="196px" height="196px" viewBox="0 0 16.00 16.00" id="block-16px" xmlns="http://www.w3.org/2000/svg" stroke="#4c6acd" stroke-width="0.00016">
<g id="SVGRepo_bgCarrier" stroke-width="0"/>
<g id="SVGRepo_tracerCarrier" stroke-linecap="round" stroke-linejoin="round" stroke="#CCCCCC" stroke-width="0.032"/>
<g id="SVGRepo_iconCarrier"> <path id="Path_163" data-name="Path 163" d="M31-288a8.009,8.009,0,0,0-8,8,8.009,8.009,0,0,0,8,8,8.009,8.009,0,0,0,8-8A8.009,8.009,0,0,0,31-288Zm-7,8a7.008,7.008,0,0,1,7-7,6.963,6.963,0,0,1,4.577,1.716l-9.861,9.861A6.963,6.963,0,0,1,24-280Zm7,7a6.963,6.963,0,0,1-4.577-1.716l9.861-9.861A6.963,6.963,0,0,1,38-280,7.008,7.008,0,0,1,31-273Z" transform="translate(-23 288)"/> </g>
</svg>